<?xml version="1.0" encoding="UTF-8" standalone="no"?>
<!-- Created with Inkscape (http://www.inkscape.org/) -->

<svg
   width="1.1810744mm"
   height="1.1274698mm"
   viewBox="0 0 1.1810744 1.1274698"
   version="1.1"
   id="svg1"
   xml:space="preserve"
   sodipodi:docname="fire-icon.svg"
   xmlns:inkscape="http://www.inkscape.org/namespaces/inkscape"
   xmlns:sodipodi="http://sodipodi.sourceforge.net/DTD/sodipodi-0.dtd"
   xmlns="http://www.w3.org/2000/svg"
   xmlns:svg="http://www.w3.org/2000/svg"><sodipodi:namedview
     id="namedview1"
     pagecolor="#505050"
     bordercolor="#eeeeee"
     borderopacity="1"
     inkscape:showpageshadow="0"
     inkscape:pageopacity="0"
     inkscape:pagecheckerboard="0"
     inkscape:deskcolor="#505050"
     inkscape:document-units="mm" /><defs
     id="defs1" /><g
     inkscape:groupmode="layer"
     id="layer2"
     inkscape:label="layer"
     transform="matrix(0.08436445,0,0,0.08436445,-0.39468196,-1.7909961)"><path
       style="display:inline;opacity:1;fill:none;fill-opacity:0;stroke:#FFFEDD;stroke-width:1.30387;stroke-linecap:round;stroke-linejoin:round;stroke-dasharray:none;stroke-opacity:1;paint-order:normal"
       d="m 5.4516871,30.432815 c 0,0 0.868218,3.388751 3.1082106,3.49306 5.6879733,0.264868 9.0817583,-2.870226 9.3792573,-4.737701 0.553738,-3.475943 -1.685059,-5.728292 -1.685059,-5.728292"
       id="path29"
       sodipodi:nodetypes="cssc"
       inkscape:label="path-b" /><path
       style="display:inline;opacity:1;fill:none;fill-opacity:0;stroke:#FFFEDD;stroke-width:1.30387;stroke-linecap:round;stroke-linejoin:round;stroke-dasharray:none;stroke-opacity:1;paint-order:normal"
       d="m 8.1678733,25.962881 c 0.065653,-2.144971 2.2708317,-4.149164 4.8099847,-4.079864 4.069715,0.186167 4.108569,4.128867 4.108569,4.128867 C 16.633213,31.10643 8.8764803,33.023906 6.2200025,31.108201 4.9516816,30.193557 5.2899612,29.123758 5.7111465,28.619748 6.6090957,27.54522 8.1022202,28.107852 8.1678733,25.962881 Z"
       id="path28"
       sodipodi:nodetypes="zccssz"
       inkscape:label="path-t" /><ellipse
       style="opacity:1;fill:none;fill-opacity:0;stroke:#FFFEDD;stroke-width:1.2262;stroke-linecap:round;stroke-linejoin:round;stroke-dasharray:none;stroke-opacity:1;paint-order:normal"
       id="path30"
       cy="15.441203"
       cx="24.336304"
       rx="1.3006649"
       ry="1.4451286"
       transform="rotate(32.027284)"
       inkscape:label="circle" /></g></svg>
