<?xml version="1.0" encoding="UTF-8" standalone="no"?>
<!-- Created with Inkscape (http://www.inkscape.org/) -->

<svg
   width="0.97037566mm"
   height="0.95460069mm"
   viewBox="0 0 0.97037566 0.95460069"
   version="1.1"
   id="svg1"
   xml:space="preserve"
   sodipodi:docname="fire-icon.svg"
   xmlns:inkscape="http://www.inkscape.org/namespaces/inkscape"
   xmlns:sodipodi="http://sodipodi.sourceforge.net/DTD/sodipodi-0.dtd"
   xmlns="http://www.w3.org/2000/svg"
   xmlns:svg="http://www.w3.org/2000/svg"><sodipodi:namedview
     id="namedview1"
     pagecolor="#505050"
     bordercolor="#eeeeee"
     borderopacity="1"
     inkscape:showpageshadow="0"
     inkscape:pageopacity="0"
     inkscape:pagecheckerboard="0"
     inkscape:deskcolor="#505050"
     inkscape:document-units="mm" /><defs
     id="defs1" /><g
     inkscape:groupmode="layer"
     id="layer2"
     inkscape:label="layer"
     transform="matrix(0.08436445,0,0,0.08436445,-2.0374991,-0.92036159)"><path
       id="path24"
       style="opacity:1;fill:none;fill-opacity:0;stroke:#f2f2f2;stroke-width:1.4224;stroke-linecap:round;stroke-linejoin:round;stroke-dasharray:none;stroke-opacity:1;paint-order:normal"
       d="m 32.116866,14.14591 c -2.986467,2.200921 -4.840995,4.916359 -7.261493,7.374539 z"
       inkscape:label="center"
       inkscape:export-filename="dumbell.svg"
       inkscape:export-xdpi="96"
       inkscape:export-ydpi="96"
       sodipodi:nodetypes="ccc" /><path
       id="path21"
       style="opacity:1;fill:none;fill-opacity:0;stroke:#f2f2f2;stroke-width:1.18533;stroke-linecap:round;stroke-linejoin:round;stroke-dasharray:none;stroke-opacity:1;paint-order:normal"
       inkscape:label="external"
       d="m 30.486264,11.502012 c -1.105098,0.394511 -1.355669,1.074232 -1.413044,1.393625 -0.05738,0.31939 -0.06202,1.048308 0.839078,1.799907 1.254361,-0.448431 1.399093,-1.257842 1.408513,-1.326119 0.0094,-0.06828 0.265467,-0.948626 -0.834547,-1.867413 z m 3.120277,0.06715 c -0.545127,0.03597 -0.850488,0.280677 -0.994581,0.434031 -0.200484,0.213355 -0.564156,0.758907 -0.252238,1.770566 1.169307,0.277729 1.6798,-0.263262 1.720505,-0.310271 0.04071,-0.04701 0.661847,-0.584334 0.281697,-1.82028 -0.289657,-0.06893 -0.542072,-0.08812 -0.755383,-0.07405 z m -5.413767,1.923239 c -1.105097,0.39451 -1.349544,1.074088 -1.406919,1.393479 -0.05739,0.319391 -0.06202,1.048308 0.839078,1.799908 1.254361,-0.448432 1.399092,-1.257842 1.408513,-1.326119 0.0094,-0.06828 0.259343,-0.948482 -0.840672,-1.867268 z m 5.217587,1.181707 c -0.05183,0.0034 -0.09444,0.0086 -0.134431,0.01543 -0.319893,0.0545 -1.008603,0.292123 -1.413043,1.393625 0.908847,1.108241 1.790033,0.865561 1.858384,0.856743 0.06836,-0.0088 0.879708,-0.147737 1.339414,-1.39801 -0.650524,-0.794346 -1.287503,-0.891558 -1.650324,-0.867791 z m -7.234829,1.090123 c -1.105098,0.39451 -1.3494,1.08021 -1.406775,1.399602 -0.05739,0.319391 -0.06217,1.042185 0.838933,1.793784 1.25436,-0.448431 1.399092,-1.257842 1.408512,-1.326118 0.0094,-0.06828 0.259345,-0.948483 -0.84067,-1.867268 z m 4.941485,0.906389 c -0.052,0.0034 -0.100568,0.0088 -0.140555,0.01558 -0.319894,0.0545 -0.996355,0.291831 -1.400796,1.393334 0.908848,1.108243 1.790034,0.865561 1.858384,0.856743 0.06836,-0.0088 0.879711,-0.147737 1.339415,-1.39801 -0.650525,-0.794341 -1.292456,-0.891374 -1.656448,-0.867645 z m -2.011264,2.265561 c -0.052,0.0034 -0.100423,0.01489 -0.14041,0.0217 -0.319894,0.0545 -0.99621,0.297957 -1.400652,1.399458 0.908847,1.108237 1.789889,0.859438 1.85824,0.85062 0.06836,-0.0088 0.87971,-0.147737 1.339414,-1.39801 -0.650524,-0.794343 -1.292601,-0.897498 -1.656592,-0.873769 z" /></g></svg>
