<?xml version="1.0" encoding="UTF-8" standalone="no"?>
<!-- Created with Inkscape (http://www.inkscape.org/) -->

<svg
   width="1.2643486mm"
   height="1.201786mm"
   viewBox="0 0 1.2643486 1.201786"
   version="1.1"
   id="svg1"
   xml:space="preserve"
   sodipodi:docname="egg.svg"
   xmlns:inkscape="http://www.inkscape.org/namespaces/inkscape"
   xmlns:sodipodi="http://sodipodi.sourceforge.net/DTD/sodipodi-0.dtd"
   xmlns="http://www.w3.org/2000/svg"
   xmlns:svg="http://www.w3.org/2000/svg"><sodipodi:namedview
     id="namedview1"
     pagecolor="#505050"
     bordercolor="#eeeeee"
     borderopacity="1"
     inkscape:showpageshadow="0"
     inkscape:pageopacity="0"
     inkscape:pagecheckerboard="0"
     inkscape:deskcolor="#505050"
     inkscape:document-units="mm" /><defs
     id="defs1" /><g
     inkscape:groupmode="layer"
     id="layer2"
     inkscape:label="layer"
     transform="translate(-23.213572,-17.02424)"><path
       style="fill:none;stroke:#FFFEDD;stroke-width:0.120483;stroke-linecap:round;stroke-linejoin:round;stroke-dasharray:none;stroke-opacity:1"
       d="m 23.362713,17.659082 c 0.06016,-0.11375 -0.03762,-0.19978 -0.02577,-0.316637 0.01649,-0.162497 0.160166,-0.245806 0.290005,-0.256311 0.27455,-0.02222 0.333247,0.167311 0.463217,0.249386 0.08708,0.05499 0.197239,0.05933 0.26031,0.133433 0.09006,0.105815 0.08734,0.304637 0.0054,0.416825 -0.06632,0.09076 -0.153555,0.0806 -0.322589,0.09829 -0.07145,0.0075 -0.184084,0.04959 -0.222131,0.08458 -0.03319,0.03053 -0.116315,0.07796 -0.189827,0.09205 -0.112579,0.02156 -0.187406,-0.02236 -0.253174,-0.08187 -0.05775,-0.05226 -0.09928,-0.157028 -0.09369,-0.21403 0.0068,-0.07021 0.01373,-0.141815 0.08828,-0.205715 z"
       id="path1"
       sodipodi:nodetypes="sssssasssasss" /><ellipse
       style="fill:none;stroke:#FFFEDD;stroke-width:0.102411;stroke-linecap:round;stroke-linejoin:round;stroke-dasharray:none;stroke-opacity:1"
       id="path3"
       cx="23.823296"
       cy="17.632669"
       rx="0.20691477"
       ry="0.19337827"
       inkscape:label="circle" /></g></svg>
