<?xml version="1.0" encoding="UTF-8" standalone="no"?>
<!-- Created with Inkscape (http://www.inkscape.org/) -->

<svg
   version="1.1"
   id="svg1"
   width="660.64679"
   height="660.64673"
   viewBox="0 0 660.64679 660.64673"
   sodipodi:docname="cartoon3.jpeg"
   inkscape:version="0.0"
   xml:space="preserve"
   xmlns:inkscape="http://www.inkscape.org/namespaces/inkscape"
   xmlns:sodipodi="http://sodipodi.sourceforge.net/DTD/sodipodi-0.dtd"
   xmlns="http://www.w3.org/2000/svg"
   xmlns:svg="http://www.w3.org/2000/svg"><defs
     id="defs1" /><sodipodi:namedview
     id="namedview1"
     pagecolor="#505050"
     bordercolor="#eeeeee"
     borderopacity="1"
     inkscape:showpageshadow="0"
     inkscape:pageopacity="0"
     inkscape:pagecheckerboard="0"
     inkscape:deskcolor="#505050"
     inkscape:zoom="1.1559539"
     inkscape:cx="298.45482"
     inkscape:cy="398.3723"
     inkscape:window-width="1920"
     inkscape:window-height="1051"
     inkscape:window-x="-9"
     inkscape:window-y="-9"
     inkscape:window-maximized="1"
     inkscape:current-layer="layer1" /><g
     inkscape:groupmode="layer"
     id="layer1"
     inkscape:label="Layer"
     style="display:inline"
     transform="translate(-164.226,-211)"><g
       id="g9"
       inkscape:label="bg"><rect
         style="display:inline;fill:#fffed9;fill-opacity:1;stroke:none;stroke-width:32;stroke-linecap:round;stroke-linejoin:round;stroke-dasharray:none;stroke-opacity:1"
         id="rect1-7-9"
         width="628.64679"
         height="628.64673"
         x="180.226"
         y="227"
         ry="225.86804"
         rx="239.89178"
         inkscape:label="fill" /><path
         style="display:inline;fill:#cdb68c;fill-opacity:1;stroke:none;stroke-width:53.547;stroke-dasharray:none"
         d="m 408.89113,838.93675 c 0,0 210.37049,-29.37507 267.98601,-77.34996 57.61552,-47.97488 121.75244,-222.85567 121.75244,-222.85567 0,0 -9.85182,197.56758 -43.04359,223.24244 -33.19177,25.67483 -51.64826,67.25807 -131.48699,84.67015 -79.83873,17.41207 -215.20787,-7.70696 -215.20787,-7.70696 z"
         id="path1-4"
         inkscape:label="shadow"
         sodipodi:nodetypes="czcssc" /><rect
         style="display:inline;fill:none;fill-opacity:1;stroke:#031818;stroke-width:32;stroke-linecap:round;stroke-linejoin:round;stroke-dasharray:none;stroke-opacity:1"
         id="rect1-7"
         width="628.64679"
         height="628.64673"
         x="180.226"
         y="227"
         ry="262.91882"
         rx="271.3288"
         inkscape:label="stroke" /></g><g
       id="g5"
       inkscape:label="internal"
       style="display:inline"
       transform="matrix(0.87013904,0,0,0.87013904,23.799241,146.83715)"><rect
         style="display:inline;fill:#fe9400;fill-opacity:1;stroke:none;stroke-width:22;stroke-linecap:round;stroke-linejoin:round;stroke-dasharray:none;stroke-opacity:1"
         id="rect1-7-2-1"
         width="230.50478"
         height="230.50475"
         x="380.44104"
         y="416.10513"
         ry="96.403969"
         rx="99.487633"
         inkscape:label="fill"
         transform="matrix(1.1492416,0,0,1.1492416,-27.078282,-154.56136)" /><path
         style="display:inline;fill:#fc6200;fill-opacity:1;stroke:none;stroke-width:25.2833;stroke-dasharray:none"
         d="m 476.26029,566.86346 c 0,0 90.68711,-13.35701 127.24316,-40.07104 36.55604,-26.71403 62.56706,-91.39011 62.56706,-91.39011 0,0 -5.62399,95.60811 -21.79302,106.85613 -16.16901,11.24801 -32.33804,30.22903 -69.59708,35.85304 -37.25905,5.62401 -98.42012,-11.24802 -98.42012,-11.24802 z"
         id="path1"
         inkscape:label="shadow" /><rect
         style="display:inline;fill:none;fill-opacity:1;stroke:#031818;stroke-width:25;stroke-linecap:round;stroke-linejoin:round;stroke-dasharray:none;stroke-opacity:1"
         id="rect1-7-2"
         width="230.50478"
         height="230.50475"
         x="379.28864"
         y="413.95273"
         ry="96.403969"
         rx="99.487633"
         inkscape:label="stroke"
         transform="matrix(1.1492416,0,0,1.1492416,-27.078282,-154.56136)" /></g></g></svg>
